# xmcd CD database file
#
# Track frame offsets:
#	150
#	16710
#	41271
#	57148
#	88200
#	96918
#	115893
#	142583
#	162791
#	176616
#	192942
#	214914
#	234528
#
# Disc length: 3281 seconds
#
# Revision: 1
# Processed by: cddbd v1.5.2PL0 Copyright (c) Steve Scherf et al.
# Submitted via: CDex 1.97
#
DISCID=a10ccf0d
DTITLE=Alastair Greene - Dream Train
DYEAR=2017
DGENRE=Blues
TTITLE0=Dream Train
TTITLE1=Big Bad Wolf
TTITLE2=Nome Zayne
TTITLE3=Another Lie
TTITLE4=Song For Rufus
TTITLE5=I'm The Taker
TTITLE6=Daredevil
TTITLE7=Grateful Swagger
TTITLE8=Rain Stomp
TTITLE9=Demons Down
TTITLE10=Iowa
TTITLE11=Down To Memphis
TTITLE12=Lucky 13
EXTD=YEAR: 2017
EXTT0=
EXTT1=
EXTT2=
EXTT3=
EXTT4=
EXTT5=
EXTT6=
EXTT7=
EXTT8=
EXTT9=
EXTT10=
EXTT11=
EXTT12=
PLAYORDER=
